<?xml version="1.0" encoding="utf-8"?>
<!-- Generator: Adobe Illustrator 25.3.0, SVG Export Plug-In . SVG Version: 6.00 Build 0)  -->
<svg version="1.1" id="Layer_1" xmlns="http://www.w3.org/2000/svg" xmlns:xlink="http://www.w3.org/1999/xlink" x="0px" y="0px"
	 viewBox="0 0 300 300" style="enable-background:new 0 0 300 300;" xml:space="preserve">
<g>
	<g>
		<path style="fill:#FCC00D;" d="M261.2,180.1c3.9-3,5.2-8.1,2.9-12.3c0.7-0.5,1.3-1.2,1.7-2c1.4-2.7-0.4-5.3-2.3-7.1l0.8-2.6
			c2.1-6.8-0.2-14.2-5.8-18.7l-40.6-32.7c-2.7,0.6-5.5,0.7-8.2,0.3c-3.3-0.5-6.6-1.6-9.2-3.8c-2.2-1.9-3.6-4.6-3.4-7.6
			c0.1-1.6,0.7-3,1.4-4.4l-34.8-28c-4.1-3.3-9.4-4.6-14.6-3.5L51.9,78.5C43,80.4,37.1,88.8,38.2,97.8c-2.5,1.5-4.3,3.8-4.6,6.9
			c-0.2,2.1,0.6,4.3,1.7,6.1c0.6,1,1.8,1.8,2.4,2.9c0.3,0.5,0.5,0.8,0.6,0.8c-0.1,0.3-0.2,0.7-0.3,1.4c-0.8,5.1-2.9,8.5-1.7,14
			c1.1,5,3.8,9.3,7.6,12.5l0.5,3.5c-0.4,0.2-0.9,0.3-1.3,0.6c-1,0.5-1.9,1.2-2.5,2.2c-0.2,0.3-0.4,0.5-0.5,0.9
			c-0.1,0.4-0.2,1-0.1,1.4c0.1,0.7,0.5,1.4,1.1,1.8c0.5,0.4,1,0.7,1.6,0.8c-1.9,1.6-3.1,3.7-3,6.5c0.2,4.5,4.1,7.4,7.7,9.4l1.3,9.8
			c-0.9,0.7-1.7,1.5-2.2,2.7c-0.7,1.5-0.8,3.2-0.1,4.8c0.8,1.7,2.3,2.8,4,3.3c1.9,5.5,6.4,9.8,12.2,11.3l158.1,40.6
			c9.1,2.3,18.3-2.9,21.1-11.9l2.9-9.6c4.3-1.8,7.8-5.3,8.6-9.8c0.7-3.5-0.2-7.1-2.8-9.3l6-19.7C258.3,181.5,260,181,261.2,180.1z"
			/>
		<path style="fill:#FFE055;" d="M258.6,137.5l-40.6-32.7c-2.7,0.6-5.5,0.7-8.2,0.3c-3.3-0.5-6.6-1.6-9.2-3.8
			c-2.2-1.9-3.6-4.6-3.4-7.6c0.1-1.6,0.7-3,1.4-4.4l-34.8-28c-4.1-3.3-9.4-4.6-14.6-3.5L51.9,78.5c-4.3,0.9-7.8,3.3-10.3,6.6
			c15.4,4.5,30.6,10.1,45.5,16c16.3,6.4,32.3,13.2,48.6,19.6c16.2,6.4,32.6,12.4,49.4,17.1c8.3,2.3,16.6,4.3,25.1,5.9
			c8.2,1.5,16.5,2.4,24.7,3.5c7.1,0.9,14.3,1.7,21.5,1.1c2.8-0.2,5.5-0.7,8.1-1.4C263.6,143.2,261.5,139.9,258.6,137.5z"/>
		<path style="fill:#F69F15;" d="M184.5,157.4c-1.8,10.6-14.3,20.9-27,14.6c-9.2-4.6-15.8-24.6-6.3-32c5-3.9,14.1-1.8,19.7-0.2
			C180.8,142.7,185.7,150,184.5,157.4z"/>
		<path style="opacity:0.22;fill:#FCC00D;" d="M157,144.6c7,2.5,12.2,8.7,15.3,15.2c1.6,3.4,2.8,7.1,3.4,10.9
			c4.7-3.1,8-8.2,8.9-13.3c1.2-7.4-3.6-14.7-13.6-17.6c-5.5-1.6-14.7-3.7-19.7,0.2c-1.3,1-2.3,2.2-3,3.6
			C151.1,143.3,154.1,143.6,157,144.6z"/>
		
			<ellipse transform="matrix(0.1779 -0.984 0.984 0.1779 -67.2383 210.3261)" style="fill:#F69F15;" cx="92.3" cy="145.4" rx="12.6" ry="13.5"/>
		<path style="opacity:0.38;fill:#FCC00D;" d="M87.2,137.7c5.3,0.7,9.3,5,12.2,9.2c1.4,2,2.5,4.2,3.6,6.5c1.3-1.6,2.2-3.5,2.6-5.6
			c1.2-6.9-3.7-13.5-11-14.8c-5.6-1-11,1.4-13.7,5.6C82.8,137.8,84.9,137.4,87.2,137.7z"/>
		<circle style="fill:#F69F15;" cx="128.3" cy="193" r="9.6"/>
		
			<ellipse transform="matrix(0.1779 -0.984 0.984 0.1779 24.7096 379.8906)" style="fill:#F69F15;" cx="239.7" cy="175.2" rx="9.6" ry="7.4"/>
		
			<ellipse transform="matrix(0.1779 -0.984 0.984 0.1779 -54.694 365.4199)" style="fill:#F69F15;" cx="191.4" cy="215.4" rx="9.1" ry="8.7"/>
		<path style="opacity:0.38;fill:#FCC00D;" d="M123.7,188.1c5.6,0.6,10.3,4.1,13.4,8.7c0.3-0.7,0.5-1.3,0.6-2.1
			c0.9-5.2-2.5-10.2-7.7-11.1c-4-0.7-7.9,1.2-9.9,4.5C121.3,187.9,122.5,187.9,123.7,188.1z"/>
		<path style="opacity:0.38;fill:#FCC00D;" d="M237.2,170.6c3.8,2.4,6.3,6.3,7.9,10.5c0.9-1.3,1.6-2.9,1.9-4.7
			c0.9-5.2-1.6-10-5.6-10.7c-2.6-0.5-5.3,0.9-7.1,3.5C235.4,169.6,236.3,170,237.2,170.6z"/>
		<path style="opacity:0.38;fill:#FCC00D;" d="M187,208.9c3.6,0.9,6.2,3.8,7.8,7.1c1,2,1.6,4.2,1.9,6.5c1.6-1.3,2.8-3.3,3.2-5.5
			c0.9-5-2.2-9.7-6.9-10.5c-2.7-0.5-5.4,0.4-7.4,2.3C186.1,208.8,186.5,208.8,187,208.9z"/>
		
			<ellipse transform="matrix(0.1779 -0.984 0.984 0.1779 -27.3305 167.7533)" style="fill:#FFD927;" cx="86.7" cy="100.2" rx="10.9" ry="13.9"/>
		<path style="opacity:0.63;fill:#FCC00D;" d="M95.9,104.8c-4.2-1.1-8.4-2.1-12.4-3.5c-3.5-1.2-7.1-2.8-9.8-5.3
			c-0.2,0.6-0.4,1.2-0.5,1.8c-1.1,5.9,4.2,11.8,11.8,13.2c6.2,1.1,12-1.1,14.5-5.2C98.1,105.4,97,105.1,95.9,104.8z"/>
		
			<ellipse transform="matrix(0.7142 -0.6999 0.6999 0.7142 -69.855 157.7177)" style="fill:#FFE055;" cx="158.2" cy="164.4" rx="3.2" ry="3.8"/>
		<path style="fill:#FFE055;" d="M81.8,107.6c-0.6,0.6-1.7,0.5-2.4-0.2c-0.7-0.7-0.8-1.8-0.2-2.4c0.6-0.6,1.7-0.5,2.4,0.2
			C82.4,105.9,82.5,107,81.8,107.6z"/>
		
			<ellipse transform="matrix(0.7142 -0.6999 0.6999 0.7142 -81.1678 106.0729)" style="fill:#FFE055;" cx="89.3" cy="152.4" rx="1.5" ry="1.8"/>
		<path style="fill:#FFE055;" d="M125.6,196.7c-0.6,0.6-1.7,0.5-2.4-0.2c-0.7-0.7-0.8-1.8-0.2-2.4c0.6-0.6,1.7-0.5,2.4,0.2
			C126.1,195,126.2,196.1,125.6,196.7z"/>
		<path style="fill:#FFE055;" d="M190.6,221.9c-0.6,0.6-1.7,0.5-2.4-0.2c-0.7-0.7-0.8-1.8-0.2-2.4c0.6-0.6,1.7-0.5,2.4,0.2
			C191.1,220.2,191.2,221.3,190.6,221.9z"/>
		
			<ellipse transform="matrix(0.7142 -0.6999 0.6999 0.7142 -57.0292 218.7812)" style="fill:#FFE055;" cx="239.4" cy="179.2" rx="1.5" ry="1.8"/>
		<path style="fill:#FCC00D;" d="M174.5,100.2c-1.2,6.7-15.3,6.7-27.2,4.6c-11.9-2.2-20.6-9.3-19.4-16c1.2-6.7,11.9-10.4,23.8-8.2
			C163.6,82.7,175.7,93.5,174.5,100.2z"/>
		<path style="opacity:0.2;fill:#FCC00D;" d="M149.5,103.7c-2.1-3-3-6.6-2.5-10.2c0.5-4.2,3.2-8,6.9-10c1.2-0.6,2.5-1.1,3.7-1.3
			c-1.9-0.8-3.9-1.4-5.8-1.7c-11.9-2.2-22.6,1.5-23.8,8.2c-1.2,6.7,7.5,13.9,19.4,16c1.1,0.2,2.3,0.4,3.5,0.6
			C150.3,104.8,149.9,104.3,149.5,103.7z"/>
	</g>
</g>
</svg>
