<?xml version="1.0" encoding="utf-8"?>
<!-- Generator: Adobe Illustrator 25.3.0, SVG Export Plug-In . SVG Version: 6.00 Build 0)  -->
<svg version="1.1" id="Layer_1" xmlns="http://www.w3.org/2000/svg" xmlns:xlink="http://www.w3.org/1999/xlink" x="0px" y="0px"
	 viewBox="0 0 81.5 77.9" enable-background="new 0 0 81.5 77.9" xml:space="preserve">
<g>
	<circle fill="#F9F6F0" stroke="#020203" stroke-miterlimit="10" stroke-dasharray="8,8" cx="40.6" cy="40.6" r="34.7"/>
	<circle fill="#010202" cx="40.6" cy="40.6" r="29.8"/>
	<g>
		<path fill="#F9F6F0" d="M25.5,36.1c2.7,1.5,4.3,5.6,4.6,8.7c-2.5,0.1-4.8,1.8-5.1,4.5c-0.1,1.3,0.2,3,1.4,3.7
			c0.1,0.1,0.2,0.1,0.3,0.2c-1,1-1.4,2.6-0.9,4.3c0.8,2.9,3.7,2.8,6.1,2.6c0.2,0.5,18,0.2,18.1-0.2c2.5,0.2,5.1,0.1,6.1-2.8
			c0.6-1.7,0.1-3.3-1-4.3c0.1-0.1,0.2-0.1,0.3-0.2c1.2-0.8,1.4-2.4,1.3-3.7c-0.3-2.7-2.7-4.3-5.2-4.4c0.2-3.1,1.8-7.2,4.4-8.8
			c0.1,0,0.1-0.1,0.2-0.1c0.4-0.3,0.4-0.7,0.3-1.1c-0.1-0.3-0.4-0.6-0.8-0.7c0,0-0.1,0-0.1,0c0,0,0,0,0,0c-1.5,0-3,0-4.5-0.1
			c-0.5-3.2-2.6-5.8-5.7-6.6c1.1-1.4,1.6-3.2,1.3-5.1c-0.5-2.8-3.4-3.8-6.1-3.7c-2.6,0-5.4,1.1-6,3.9c-0.4,1.9,0.2,3.7,1.4,5.1
			c-3,0.9-5.1,3.4-5.5,6.7c-1.5,0.2-3,0.2-4.5,0.2c0,0,0,0,0,0c0,0-0.1,0-0.1,0c-0.4,0.1-0.7,0.3-0.8,0.7c-0.1,0.4-0.1,0.8,0.3,1.1
			C25.4,36,25.5,36.1,25.5,36.1z"/>
	</g>
</g>
</svg>
