<?xml version="1.0" encoding="utf-8"?>
<!-- Generator: Adobe Illustrator 25.3.0, SVG Export Plug-In . SVG Version: 6.00 Build 0)  -->
<svg version="1.1" id="Layer_1" xmlns="http://www.w3.org/2000/svg" xmlns:xlink="http://www.w3.org/1999/xlink" x="0px" y="0px"
	 viewBox="0 0 300 300" style="enable-background:new 0 0 300 300;" xml:space="preserve">
<g>
	<path style="fill:#5B423D;" d="M225.3,96.6l-5.8-19c0,0,17.8,0.5,22.4,20.9L225.3,96.6z"/>
	<path style="fill:#563832;" d="M114.8,186.3l-12.3-12l85,11c3,0.4,5.3,3,5.3,6c0,0.8,0,1.7,0,2.6c0,1-0.5,2-1.4,2.5
		c-1.7,0.9-3.4,0.2-4.2-1.2c-0.5,0.9-1.5,1.6-2.6,1.6c-1.1,0-2.1-0.6-2.6-1.6c-0.6,1.1-1.8,1.8-3.1,1.5c-1-0.2-1.8-0.8-2.2-1.7
		c-0.4-0.8-0.3-1.6-0.1-2.3h-50.4L114.8,186.3z"/>
	<path style="fill:#563832;" d="M211.9,159.9l13.4-10.7v30.9h12.4c3.4,0,6.1,2.8,6.2,6.2c0,0.1,0,0.2,0,0.4c0,1.6-1.3,2.9-2.9,2.9
		c-1.1,0-2-0.6-2.5-1.4c-0.5,0.9-1.4,1.4-2.5,1.4c-1.1,0-2-0.6-2.5-1.4c-0.5,0.9-1.4,1.4-2.5,1.4c-1.6,0-2.9-1.3-2.9-2.9
		c0-0.1,0-0.2,0-0.3h-5.4c-2.2,0-4.2-1.5-4.7-3.7L211.9,159.9z"/>
	<path style="fill:#7F5D54;" d="M82.9,156.3c0,0-40.8,5.3-62,18.5c-9.6,6-13.4,13.8-12.8,21.9c1.8,25,50.2,29.8,100.1,22.9
		c0.7-0.1,1.2-0.5,1.2-1.2l0,0c0-0.6-0.5-1.2-1.1-1.2c-10.2-0.1-59.7,4.3-79.1-9.6c-10.4-7.5-10.7-16.2,2.4-21.8
		c18.9-8.1,60.3-10.5,60.3-10.5L82.9,156.3z"/>
	<path style="fill:#7F5D54;" d="M78.2,156.3c0.2-2.3,2.8-3.4,5.4-2.1c17.9-54.5,34.8-62,56-64c24.8-2.4,99.4,5.4,99.4,5.4l52.4,33
		c0.8,0.5,0.9,1.6,0.3,2.3c-19.6,21.9-56.4,9.8-56.4,9.8l-26,34l1.7,16.7h14.2c3.4,0,6.2,2.8,6.2,6.2v0.6c0,1.4-0.9,2.7-2.3,3
		c-1.4,0.3-2.7-0.4-3.3-1.5c-0.5,0.9-1.5,1.5-2.6,1.5c-1.1,0-2.1-0.6-2.6-1.5c-0.5,0.9-1.5,1.5-2.6,1.5c-1.6,0-3-1.3-3-3
		c0-0.2,0-0.3,0-0.5h-6.5c-1.8,0-3.5-1-4.3-2.6l-13.1-24.1h-26.1c-6.9,16-23.9,14.2-23.9,14.2l38.5,4.9c3,0.4,5.3,3,5.3,6
		c0,0.8,0,1.7,0,2.6c0,1-0.5,2-1.4,2.5c-1.7,0.9-3.4,0.2-4.2-1.2c-0.5,0.9-1.5,1.6-2.6,1.6c-1.1,0-2.1-0.6-2.6-1.6
		c-0.6,1.1-1.8,1.8-3.1,1.5c-1-0.2-1.8-0.8-2.2-1.7c-0.4-0.8-0.3-1.6-0.1-2.3h-35.1l-43.6-21.5c0,0-7.4,3.1-9.2,0
		c-1.8-3.1,5.7-5.4,5.7-5.4s-6.2,0.7-6.7-3.5c-0.5-4.2,3.6-4.8,3.6-4.8S77.8,160.9,78.2,156.3z"/>
	<g>
		<path style="fill:#1D1E1B;" d="M246.9,123.8c0,3,2.5,5.5,5.5,5.5c3,0,5.5-2.5,5.5-5.5s-2.5-5.5-5.5-5.5
			C249.3,118.3,246.9,120.7,246.9,123.8z"/>
		<circle style="fill:#D0D3D3;" cx="252.4" cy="123.8" r="1.9"/>
	</g>
	<path style="fill:#5B423D;" d="M286,136c-1.8-1.3-3.6-3.1-4.4-5.5c0,0,2.5,2.5,6.9,3.5C287.7,134.7,286.8,135.4,286,136z"/>
	<path style="fill:#725148;" d="M139.2,182.3c12.1,0,21.9-9.6,21.9-21.4c0-6.2-2.7-11.7-7-15.6c7.1,3.5,12,10.7,12,19
		c0,11.8-9.8,21.4-21.9,21.4c-5.8,0-11-2.2-14.9-5.7C132.3,181.4,135.7,182.3,139.2,182.3z"/>
	<path style="fill:#F9C29C;" d="M194.1,87.2c7.2-5.6,18.8-2.8,25.9,6.3c5,6.4,6.4,14.1,4.4,20.1l-15.9,9.2c-5.2-0.8-10.5-3.9-14.5-9
		C186.9,104.8,186.9,92.8,194.1,87.2z"/>
	<path style="fill:#5B423D;" d="M203,115.7l4-0.3v-2.3c0-1.2,1.2-2.1,2.4-1.6l-0.1-0.5c-0.2-1.5,1.5-2.5,2.7-1.6l2.8,2.1
		c0.8-5.6-0.9-12.2-5.2-17.7c-3.3-4.3-7.6-7.2-12-8.5c7.1-2.6,16.3,0.6,22.3,8.3c5,6.4,6.4,14.1,4.4,20.1l-15.9,9.2
		c-1.9-0.3-3.9-0.9-5.8-1.8l-1.2-3C201.1,117,201.8,115.8,203,115.7z"/>
</g>
</svg>
